<svg class="lds-spinner" width="200px"  height="200px"  xmlns="http://www.w3.org/2000/svg" xmlns:xlink="http://www.w3.org/1999/xlink" viewBox="0 0 100 100" preserveAspectRatio="xMidYMid" style="background: none;"><g transform="rotate(0 50 50)">
  <rect x="46" y="0" rx="2.3000000000000003" ry="0" width="8" height="20" fill="#e50914">
    <animate attributeName="opacity" values="1;0" keyTimes="0;1" dur="1.2s" begin="-1.12s" repeatCount="indefinite"></animate>
  </rect>
</g><g transform="rotate(24 50 50)">
  <rect x="46" y="0" rx="2.3000000000000003" ry="0" width="8" height="20" fill="#e50914">
    <animate attributeName="opacity" values="1;0" keyTimes="0;1" dur="1.2s" begin="-1.04s" repeatCount="indefinite"></animate>
  </rect>
</g><g transform="rotate(48 50 50)">
  <rect x="46" y="0" rx="2.3000000000000003" ry="0" width="8" height="20" fill="#e50914">
    <animate attributeName="opacity" values="1;0" keyTimes="0;1" dur="1.2s" begin="-0.9599999999999999s" repeatCount="indefinite"></animate>
  </rect>
</g><g transform="rotate(72 50 50)">
  <rect x="46" y="0" rx="2.3000000000000003" ry="0" width="8" height="20" fill="#e50914">
    <animate attributeName="opacity" values="1;0" keyTimes="0;1" dur="1.2s" begin="-0.88s" repeatCount="indefinite"></animate>
  </rect>
</g><g transform="rotate(96 50 50)">
  <rect x="46" y="0" rx="2.3000000000000003" ry="0" width="8" height="20" fill="#e50914">
    <animate attributeName="opacity" values="1;0" keyTimes="0;1" dur="1.2s" begin="-0.8s" repeatCount="indefinite"></animate>
  </rect>
</g><g transform="rotate(120 50 50)">
  <rect x="46" y="0" rx="2.3000000000000003" ry="0" width="8" height="20" fill="#e50914">
    <animate attributeName="opacity" values="1;0" keyTimes="0;1" dur="1.2s" begin="-0.72s" repeatCount="indefinite"></animate>
  </rect>
</g><g transform="rotate(144 50 50)">
  <rect x="46" y="0" rx="2.3000000000000003" ry="0" width="8" height="20" fill="#e50914">
    <animate attributeName="opacity" values="1;0" keyTimes="0;1" dur="1.2s" begin="-0.64s" repeatCount="indefinite"></animate>
  </rect>
</g><g transform="rotate(168 50 50)">
  <rect x="46" y="0" rx="2.3000000000000003" ry="0" width="8" height="20" fill="#e50914">
    <animate attributeName="opacity" values="1;0" keyTimes="0;1" dur="1.2s" begin="-0.56s" repeatCount="indefinite"></animate>
  </rect>
</g><g transform="rotate(192 50 50)">
  <rect x="46" y="0" rx="2.3000000000000003" ry="0" width="8" height="20" fill="#e50914">
    <animate attributeName="opacity" values="1;0" keyTimes="0;1" dur="1.2s" begin="-0.4799999999999999s" repeatCount="indefinite"></animate>
  </rect>
</g><g transform="rotate(216 50 50)">
  <rect x="46" y="0" rx="2.3000000000000003" ry="0" width="8" height="20" fill="#e50914">
    <animate attributeName="opacity" values="1;0" keyTimes="0;1" dur="1.2s" begin="-0.4s" repeatCount="indefinite"></animate>
  </rect>
</g><g transform="rotate(240 50 50)">
  <rect x="46" y="0" rx="2.3000000000000003" ry="0" width="8" height="20" fill="#e50914">
    <animate attributeName="opacity" values="1;0" keyTimes="0;1" dur="1.2s" begin="-0.32s" repeatCount="indefinite"></animate>
  </rect>
</g><g transform="rotate(264 50 50)">
  <rect x="46" y="0" rx="2.3000000000000003" ry="0" width="8" height="20" fill="#e50914">
    <animate attributeName="opacity" values="1;0" keyTimes="0;1" dur="1.2s" begin="-0.23999999999999996s" repeatCount="indefinite"></animate>
  </rect>
</g><g transform="rotate(288 50 50)">
  <rect x="46" y="0" rx="2.3000000000000003" ry="0" width="8" height="20" fill="#e50914">
    <animate attributeName="opacity" values="1;0" keyTimes="0;1" dur="1.2s" begin="-0.16s" repeatCount="indefinite"></animate>
  </rect>
</g><g transform="rotate(312 50 50)">
  <rect x="46" y="0" rx="2.3000000000000003" ry="0" width="8" height="20" fill="#e50914">
    <animate attributeName="opacity" values="1;0" keyTimes="0;1" dur="1.2s" begin="-0.08s" repeatCount="indefinite"></animate>
  </rect>
</g><g transform="rotate(336 50 50)">
  <rect x="46" y="0" rx="2.3000000000000003" ry="0" width="8" height="20" fill="#e50914">
    <animate attributeName="opacity" values="1;0" keyTimes="0;1" dur="1.2s" begin="0s" repeatCount="indefinite"></animate>
  </rect>
</g></svg>